HIERARCHY
ROOT newVegas:Hips
{
	OFFSET 0.000000 96.479958 0.000000
	CHANNELS 6 Xposition Yposition Zposition Xrotation Yrotation Zrotation
	JOINT newVegas:Pelvis
	{
		OFFSET 0.000000 0.000000 0.000000
		CHANNELS 3 Xrotation Yrotation Zrotation
		JOINT newVegas:LeftUpLeg
		{
			OFFSET 18.735201 -5.666702 -4.541200
			CHANNELS 3 Xrotation Yrotation Zrotation
			JOINT newVegas:LeftLeg
			{
				OFFSET -0.021200 -31.938179 0.493100
				CHANNELS 3 Xrotation Yrotation Zrotation
				JOINT newVegas:LeftFoot
				{
					OFFSET 0.021200 -31.938179 -4.336299
					CHANNELS 3 Xrotation Yrotation Zrotation
					JOINT newVegas:LeftToeBase
					{
						OFFSET 0.943001 -26.722000 15.023500
						CHANNELS 3 Xrotation Yrotation Zrotation
						End Site
						{
							OFFSET 0.000000 30.670183 0.000000
						}
					}
				}
				JOINT newVegas:Left_PantLeg
				{
					OFFSET 0.663870 -9.044666 -1.108900
					CHANNELS 3 Xrotation Yrotation Zrotation
					End Site
					{
						OFFSET 1.415995 20.635357 0.000000
					}
				}
			}
		}
		JOINT newVegas:RightUpLeg
		{
			OFFSET -18.735201 -5.666702 -4.541200
			CHANNELS 3 Xrotation Yrotation Zrotation
			JOINT newVegas:RightLeg
			{
				OFFSET 0.018946 -31.938133 0.493100
				CHANNELS 3 Xrotation Yrotation Zrotation
				JOINT newVegas:RightFoot
				{
					OFFSET -0.018946 -31.938126 -4.336299
					CHANNELS 3 Xrotation Yrotation Zrotation
					JOINT newVegas:RightToeBase
					{
						OFFSET -0.943001 -26.722004 15.023500
						CHANNELS 3 Xrotation Yrotation Zrotation
						End Site
						{
							OFFSET 0.000000 30.670187 0.000000
						}
					}
				}
				JOINT newVegas:Right_PantLeg
				{
					OFFSET -0.661674 -9.044716 -1.108900
					CHANNELS 3 Xrotation Yrotation Zrotation
					End Site
					{
						OFFSET -1.415958 20.635269 0.000000
					}
				}
			}
		}
	}
	JOINT newVegas:Spine
	{
		OFFSET 0.000000 10.199997 -0.299500
		CHANNELS 3 Xrotation Yrotation Zrotation
		JOINT newVegas:Spine1
		{
			OFFSET 0.000000 11.900002 -1.516600
			CHANNELS 3 Xrotation Yrotation Zrotation
			JOINT newVegas:Spine2
			{
				OFFSET 0.000000 13.600006 -2.842500
				CHANNELS 3 Xrotation Yrotation Zrotation
				JOINT newVegas:Neck
				{
					OFFSET 0.000000 9.624100 -2.890100
					CHANNELS 3 Xrotation Yrotation Zrotation
					JOINT newVegas:Head
					{
						OFFSET 0.000000 14.068802 -1.351900
						CHANNELS 3 Xrotation Yrotation Zrotation
						JOINT newVegas:Hair_Back
						{
							OFFSET 0.000000 3.231903 -17.524799
							CHANNELS 3 Xrotation Yrotation Zrotation
							End Site
							{
								OFFSET 0.000000 19.849884 0.000000
							}
						}
						JOINT newVegas:Hair_Front
						{
							OFFSET 0.000000 31.260406 4.573800
							CHANNELS 3 Xrotation Yrotation Zrotation
							JOINT newVegas:Hair_Front1
							{
								OFFSET 0.000000 2.284103 11.993300
								CHANNELS 3 Xrotation Yrotation Zrotation
								JOINT newVegas:Hair_Front2
								{
									OFFSET 0.000000 2.284103 11.993300
									CHANNELS 3 Xrotation Yrotation Zrotation
									End Site
									{
										OFFSET 0.000000 12.208862 0.000000
									}
								}
							}
						}
						JOINT newVegas:Jowel
						{
							OFFSET 0.000000 -7.458206 6.864100
							CHANNELS 3 Xrotation Yrotation Zrotation
							End Site
							{
								OFFSET 0.000000 19.849884 0.000000
							}
						}
					}
				}
				JOINT newVegas:LeftShoulder
				{
					OFFSET 15.263000 10.923401 -0.547700
					CHANNELS 3 Xrotation Yrotation Zrotation
					JOINT newVegas:LeftArm
					{
						OFFSET 25.438599 -2.830597 -13.032500
						CHANNELS 3 Xrotation Yrotation Zrotation
						JOINT newVegas:LeftForeArm
						{
							OFFSET 29.960503 0.000000 0.000000
							CHANNELS 3 Xrotation Yrotation Zrotation
							JOINT newVegas:LeftHand
							{
								OFFSET 27.849251 0.000000 0.000000
								CHANNELS 3 Xrotation Yrotation Zrotation
								JOINT newVegas:LeftHandThumb1
								{
									OFFSET 4.487587 -3.305161 6.305391
									CHANNELS 3 Xrotation Yrotation Zrotation
									JOINT newVegas:LeftHandThumb2
									{
										OFFSET 5.480453 -3.164139 3.164143
										CHANNELS 3 Xrotation Yrotation Zrotation
										JOINT newVegas:LeftHandThumb3
										{
											OFFSET 5.159721 -2.978973 2.978967
											CHANNELS 3 Xrotation Yrotation Zrotation
											End Site
											{
												OFFSET 2.494507 5.926697 1.738678
											}
										}
									}
								}
								JOINT newVegas:LeftHandIndex1
								{
									OFFSET 18.578728 -0.527832 5.208049
									CHANNELS 3 Xrotation Yrotation Zrotation
									JOINT newVegas:LeftHandIndex2
									{
										OFFSET 3.192009 0.000000 0.000000
										CHANNELS 3 Xrotation Yrotation Zrotation
										JOINT newVegas:LeftHandIndex3
										{
											OFFSET 3.835129 0.000000 0.000000
											CHANNELS 3 Xrotation Yrotation Zrotation
											End Site
											{
												OFFSET -0.034599 3.816971 0.371180
											}
										}
									}
								}
								JOINT newVegas:LeftHandMiddle1
								{
									OFFSET 18.476105 0.000000 0.000000
									CHANNELS 3 Xrotation Yrotation Zrotation
									JOINT newVegas:LeftHandMiddle2
									{
										OFFSET 3.324875 0.000000 0.000000
										CHANNELS 3 Xrotation Yrotation Zrotation
										JOINT newVegas:LeftHandMiddle3
										{
											OFFSET 4.596550 0.000000 0.000000
											CHANNELS 3 Xrotation Yrotation Zrotation
											End Site
											{
												OFFSET 0.057701 4.578827 0.399218
											}
										}
									}
								}
								JOINT newVegas:LeftHandRing1
								{
									OFFSET 17.732719 0.121887 -4.201567
									CHANNELS 3 Xrotation Yrotation Zrotation
									JOINT newVegas:LeftHandRing2
									{
										OFFSET 2.733170 0.000000 0.000000
										CHANNELS 3 Xrotation Yrotation Zrotation
										JOINT newVegas:LeftHandRing3
										{
											OFFSET 3.178268 0.000000 0.000000
											CHANNELS 3 Xrotation Yrotation Zrotation
											End Site
											{
												OFFSET 0.119102 3.170624 0.185394
											}
										}
									}
								}
								JOINT newVegas:LeftHandPinky1
								{
									OFFSET 15.989624 -0.606689 -7.535461
									CHANNELS 3 Xrotation Yrotation Zrotation
									JOINT newVegas:LeftHandPinky2
									{
										OFFSET 2.538986 0.000000 0.000000
										CHANNELS 3 Xrotation Yrotation Zrotation
										JOINT newVegas:LeftHandPinky3
										{
											OFFSET 2.593102 0.000000 0.000000
											CHANNELS 3 Xrotation Yrotation Zrotation
											End Site
											{
												OFFSET -0.150902 2.584198 0.152708
											}
										}
									}
								}
							}
							JOINT newVegas:Left_Sleeve
							{
								OFFSET 0.267448 -0.649796 0.577675
								CHANNELS 3 Xrotation Yrotation Zrotation
								End Site
								{
									OFFSET 0.000000 15.991241 0.000000
								}
							}
							JOINT newVegas:Left_CapeC
							{
								OFFSET 15.715958 -8.608795 -6.935905
								CHANNELS 3 Xrotation Yrotation Zrotation
								JOINT newVegas:Left_CapeC1
								{
									OFFSET 0.000000 -8.688499 0.000000
									CHANNELS 3 Xrotation Yrotation Zrotation
									End Site
									{
										OFFSET 0.000000 8.688499 0.000000
									}
								}
							}
						}
						JOINT newVegas:Left_CapeB
						{
							OFFSET 26.118385 -8.608795 -7.079235
							CHANNELS 3 Xrotation Yrotation Zrotation
							JOINT newVegas:Left_CapeB1
							{
								OFFSET 0.000000 -8.688499 0.000000
								CHANNELS 3 Xrotation Yrotation Zrotation
								End Site
								{
									OFFSET 0.000000 8.688499 0.000000
								}
							}
						}
						JOINT newVegas:Left_CapeA
						{
							OFFSET 5.115639 -8.608795 -10.395809
							CHANNELS 3 Xrotation Yrotation Zrotation
							JOINT newVegas:Left_CapeA1
							{
								OFFSET 0.000000 -8.688499 0.000000
								CHANNELS 3 Xrotation Yrotation Zrotation
								End Site
								{
									OFFSET 0.000000 8.688499 0.000000
								}
							}
						}
					}
				}
				JOINT newVegas:RightShoulder
				{
					OFFSET -15.263000 10.923401 -0.547700
					CHANNELS 3 Xrotation Yrotation Zrotation
					JOINT newVegas:RightArm
					{
						OFFSET -25.438599 -2.830597 -13.032500
						CHANNELS 3 Xrotation Yrotation Zrotation
						JOINT newVegas:RightForeArm
						{
							OFFSET -29.960503 0.000000 0.000000
							CHANNELS 3 Xrotation Yrotation Zrotation
							JOINT newVegas:RightHand
							{
								OFFSET -27.849251 0.000000 0.000000
								CHANNELS 3 Xrotation Yrotation Zrotation
								JOINT newVegas:RightHandThumb1
								{
									OFFSET -4.487587 -3.305161 6.305391
									CHANNELS 3 Xrotation Yrotation Zrotation
									JOINT newVegas:RightHandThumb2
									{
										OFFSET -5.480453 -3.164139 3.164143
										CHANNELS 3 Xrotation Yrotation Zrotation
										JOINT newVegas:RightHandThumb3
										{
											OFFSET -5.159721 -2.978973 2.978967
											CHANNELS 3 Xrotation Yrotation Zrotation
											End Site
											{
												OFFSET -2.494507 5.926697 1.738678
											}
										}
									}
								}
								JOINT newVegas:RightHandIndex1
								{
									OFFSET -18.578728 -0.527832 5.208049
									CHANNELS 3 Xrotation Yrotation Zrotation
									JOINT newVegas:RightHandIndex2
									{
										OFFSET -3.192009 0.000000 0.000000
										CHANNELS 3 Xrotation Yrotation Zrotation
										JOINT newVegas:RightHandIndex3
										{
											OFFSET -3.835129 0.000000 0.000000
											CHANNELS 3 Xrotation Yrotation Zrotation
											End Site
											{
												OFFSET 0.034599 3.816971 0.371180
											}
										}
									}
								}
								JOINT newVegas:RightHandMiddle1
								{
									OFFSET -18.476105 0.000000 0.000000
									CHANNELS 3 Xrotation Yrotation Zrotation
									JOINT newVegas:RightHandMiddle2
									{
										OFFSET -3.324875 0.000000 0.000000
										CHANNELS 3 Xrotation Yrotation Zrotation
										JOINT newVegas:RightHandMiddle3
										{
											OFFSET -4.596550 0.000000 0.000000
											CHANNELS 3 Xrotation Yrotation Zrotation
											End Site
											{
												OFFSET -0.057701 4.578827 0.399218
											}
										}
									}
								}
								JOINT newVegas:RightHandRing1
								{
									OFFSET -17.732719 0.121887 -4.201567
									CHANNELS 3 Xrotation Yrotation Zrotation
									JOINT newVegas:RightHandRing2
									{
										OFFSET -2.733170 0.000000 0.000000
										CHANNELS 3 Xrotation Yrotation Zrotation
										JOINT newVegas:RightHandRing3
										{
											OFFSET -3.178268 0.000000 0.000000
											CHANNELS 3 Xrotation Yrotation Zrotation
											End Site
											{
												OFFSET -0.119102 3.170624 0.185394
											}
										}
									}
								}
								JOINT newVegas:RightHandPinky1
								{
									OFFSET -15.989624 -0.606689 -7.535461
									CHANNELS 3 Xrotation Yrotation Zrotation
									JOINT newVegas:RightHandPinky2
									{
										OFFSET -2.538986 0.000000 0.000000
										CHANNELS 3 Xrotation Yrotation Zrotation
										JOINT newVegas:RightHandPinky3
										{
											OFFSET -2.593102 0.000000 0.000000
											CHANNELS 3 Xrotation Yrotation Zrotation
											End Site
											{
												OFFSET 0.150902 2.584198 0.152708
											}
										}
									}
								}
							}
							JOINT newVegas:Right_CapeC
							{
								OFFSET -15.715958 -8.608795 -6.935905
								CHANNELS 3 Xrotation Yrotation Zrotation
								JOINT newVegas:Right_CapeC1
								{
									OFFSET 0.000000 -8.688499 0.000000
									CHANNELS 3 Xrotation Yrotation Zrotation
									End Site
									{
										OFFSET 0.000000 8.688499 0.000000
									}
								}
							}
							JOINT newVegas:Right_Sleeve
							{
								OFFSET -0.267448 -0.649994 0.577675
								CHANNELS 3 Xrotation Yrotation Zrotation
								End Site
								{
									OFFSET 0.000000 15.991302 0.000000
								}
							}
						}
						JOINT newVegas:Right_CapeA
						{
							OFFSET -5.115540 -8.608795 -10.395824
							CHANNELS 3 Xrotation Yrotation Zrotation
							JOINT newVegas:Right_CapeA1
							{
								OFFSET 0.000000 -8.688499 0.000000
								CHANNELS 3 Xrotation Yrotation Zrotation
								End Site
								{
									OFFSET 0.000000 8.688499 0.000000
								}
							}
						}
						JOINT newVegas:Right_CapeB
						{
							OFFSET -26.118187 -8.608795 -7.079266
							CHANNELS 3 Xrotation Yrotation Zrotation
							JOINT newVegas:Right_CapeB1
							{
								OFFSET 0.000000 -8.688499 0.000000
								CHANNELS 3 Xrotation Yrotation Zrotation
								End Site
								{
									OFFSET 0.000000 8.688499 0.000000
								}
							}
						}
					}
				}
				JOINT newVegas:Left_Collar
				{
					OFFSET 18.625099 8.655502 8.828100
					CHANNELS 3 Xrotation Yrotation Zrotation
					JOINT newVegas:Left_Collar1
					{
						OFFSET 14.783401 10.540405 -1.259500
						CHANNELS 3 Xrotation Yrotation Zrotation
						End Site
						{
							OFFSET 0.000000 18.199875 0.000000
						}
					}
				}
				JOINT newVegas:Collar_Back
				{
					OFFSET 0.000000 15.630707 -20.132601
					CHANNELS 3 Xrotation Yrotation Zrotation
					End Site
					{
						OFFSET 0.000000 22.523010 0.000000
					}
				}
				JOINT newVegas:Left_Peck
				{
					OFFSET 17.239599 -5.132599 25.482599
					CHANNELS 3 Xrotation Yrotation Zrotation
					End Site
					{
						OFFSET 0.000000 22.523010 0.000000
					}
				}
				JOINT newVegas:Right_Peck
				{
					OFFSET -17.239599 -5.132202 25.482599
					CHANNELS 3 Xrotation Yrotation Zrotation
					End Site
					{
						OFFSET 0.000000 22.523010 0.000000
					}
				}
				JOINT newVegas:Right_Collar
				{
					OFFSET -18.625099 8.655792 8.828100
					CHANNELS 3 Xrotation Yrotation Zrotation
					JOINT newVegas:Right_Collar1
					{
						OFFSET -14.783401 10.539993 -1.259500
						CHANNELS 3 Xrotation Yrotation Zrotation
						End Site
						{
							OFFSET 0.000000 18.199631 0.000000
						}
					}
				}
			}
		}
		JOINT newVegas:Belly
		{
			OFFSET 0.000000 -6.540398 9.014299
			CHANNELS 3 Xrotation Yrotation Zrotation
			End Site
			{
				OFFSET 0.000000 11.566666 0.000000
			}
		}
	}
	JOINT newVegas:ElvisFacialAnim_Joint
	{
		OFFSET 1.000000 -95.330101 -8.825800
		CHANNELS 3 Xrotation Yrotation Zrotation
		End Site
		{
			OFFSET 0.000000 35.315800 0.000000
		}
	}
}
MOTION
Frames: 4
Frame Time: 0.016667
-5.616085 89.292503 20.889862 -3.719301 -9.772557 -1.248311 -0.000000 0.000001 -0.000000 -34.046755 -3.763370 2.185580 43.629380 -3.387130 -2.499944 -6.129518 -6.107527 -0.580320 -0.000000 0.000000 0.000000 0.000000 -0.000001 -0.000000 -25.482958 3.917133 -0.546196 47.947306 9.745229 -3.888198 -19.367818 3.678620 1.225011 0.000000 0.000000 0.000000 0.000001 0.000000 -0.000000 5.733056 1.043807 -0.385289 4.739112 -0.064818 0.012274 10.292014 26.036295 -3.377462 1.282097 2.880645 0.150156 1.282112 2.880650 0.150159 0.000001 -0.000000 -0.000000 1.282101 2.880637 0.150157 1.282108 2.880662 0.150152 -0.000002 0.000001 -0.000000 0.000001 -0.000000 -0.000000 8.936037 -24.743276 -2.968064 -31.852840 14.094146 -57.493657 -91.088666 12.820043 -86.878586 -27.577454 -4.331866 -2.991474 0.699128 9.503389 -2.418120 5.975190 12.647536 1.348328 0.000002 -0.000001 -0.000001 9.479716 -1.289758 -20.785560 0.709480 2.796411 -28.467078 0.000002 -0.000001 0.000004 10.058160 -1.800614 -20.644710 1.774257 4.200468 -45.782065 0.000001 -0.000001 0.000001 1.254220 -0.073717 -17.945767 3.754109 5.463627 -68.965322 -0.000000 -0.000001 -0.000001 -7.938252 1.609097 -6.495669 2.210563 4.583620 -51.475161 0.000001 -0.000005 0.000003 -0.000000 -0.000000 0.000000 -0.000000 -0.000000 0.000000 -0.000000 -0.000000 0.000000 -0.000000 0.000000 0.000000 0.000000 0.000000 0.000000 -0.000000 0.000000 0.000000 -0.000001 0.000001 -0.000000 10.514879 19.496058 -2.041466 -4.648012 40.347785 49.038969 77.661840 115.432683 -92.279366 -10.082962 20.006794 14.104959 13.942494 -4.273683 -5.300334 7.113145 -20.767453 -2.619517 0.000000 0.000000 -0.000002 0.357749 -5.832700 5.175847 0.094361 -0.933686 11.539907 -0.000000 0.000001 0.000000 3.764103 -12.080454 1.143782 5.714266 -4.535836 103.133562 0.000001 0.000001 0.000000 -12.155589 -12.623918 9.228348 6.566849 -4.248442 114.232353 0.000001 0.000001 0.000000 -17.635776 -10.496873 3.325425 4.993622 -4.645001 94.147929 -0.000000 -0.000000 -0.000000 0.000000 0.000001 0.000001 -0.000000 0.000000 0.000001 0.000000 0.000001 0.000001 0.000001 0.000001 -0.000002 0.000001 0.000001 -0.000001 0.000001 0.000001 -0.000002 0.000001 -0.000000 -0.000001 0.000002 0.000002 -0.000000 0.000002 0.000002 -0.000000 0.000002 0.000002 -0.000000 0.000002 0.000002 -0.000000 0.000002 0.000002 -0.000000 0.000002 0.000002 -0.000000 0.000002 0.000002 -0.000000 0.000000 -0.000000 0.000000 -0.000000 0.000001 -0.000000 
-6.257507 89.500595 20.893879 -3.619838 -8.314153 -1.160073 0.000000 0.000000 0.000000 -33.832239 -4.795065 2.105995 42.320163 -4.059328 -2.391089 -5.275424 -5.952638 -1.220606 0.000000 -0.000002 -0.000000 -0.000000 0.000000 0.000000 -24.747828 2.997722 -0.694598 47.223935 9.160842 -3.284177 -19.329422 3.848032 0.712171 0.000000 -0.000001 0.000000 0.000002 0.000000 -0.000000 5.731337 1.071347 -0.391986 4.739295 -0.071922 0.012347 10.288215 26.012979 -3.374274 1.279176 2.858086 0.149603 1.279168 2.858077 0.149604 0.000001 -0.000003 -0.000000 1.279178 2.858085 0.149601 1.279165 2.858057 0.149609 -0.000001 0.000001 0.000000 0.000001 -0.000003 -0.000000 8.936004 -24.743267 -2.968075 -31.749649 14.370498 -57.487858 -91.150200 12.779951 -87.127976 -27.586010 -4.098546 -2.879882 0.699126 9.503397 -2.418118 5.975187 12.647536 1.348335 0.000003 0.000002 -0.000004 9.479719 -1.289755 -20.785560 0.709480 2.796414 -28.467081 -0.000002 0.000002 0.000001 10.058160 -1.800609 -20.644710 1.774258 4.200464 -45.782061 0.000001 0.000002 -0.000001 1.254221 -0.073714 -17.945765 3.754109 5.463625 -68.965322 -0.000000 -0.000002 0.000001 -7.938250 1.609099 -6.495670 2.210561 4.583623 -51.475161 0.000001 0.000000 -0.000002 -0.000000 0.000001 -0.000000 -0.000000 0.000001 -0.000000 -0.000000 0.000001 -0.000000 -0.000001 -0.000001 0.000002 -0.000001 -0.000001 0.000002 -0.000001 -0.000001 0.000002 -0.000001 -0.000000 0.000001 10.514944 19.487739 -2.039802 -4.646377 40.614685 49.167462 77.464857 115.453734 -92.137346 -9.777781 20.005580 13.914323 13.942496 -4.273681 -5.300337 7.113147 -20.767455 -2.619521 0.000001 0.000000 -0.000000 0.357748 -5.832699 5.175850 0.094360 -0.933687 11.539904 0.000000 0.000001 0.000000 3.764103 -12.080455 1.143782 5.714265 -4.535834 103.133562 0.000001 0.000000 0.000000 -12.155587 -12.623919 9.228353 6.566850 -4.248442 114.232353 0.000000 -0.000001 0.000001 -17.635772 -10.496872 3.325423 4.993612 -4.645004 94.147935 0.000001 -0.000004 0.000001 -0.000000 -0.000001 0.000003 0.000000 -0.000001 0.000001 0.000000 -0.000000 0.000005 0.000001 0.000000 -0.000002 0.000001 0.000000 0.000000 0.000001 0.000000 -0.000002 0.000001 -0.000000 0.000000 0.000003 -0.000000 0.000000 0.000003 -0.000000 0.000000 0.000003 -0.000000 0.000000 0.000003 -0.000000 0.000000 0.000003 -0.000000 0.000000 0.000003 -0.000000 0.000000 0.000003 -0.000000 0.000000 -0.000000 0.000000 -0.000000 0.000000 0.000000 0.000000 
-6.871357 89.687309 20.853548 -3.524942 -6.757343 -1.062984 0.000000 0.000000 0.000000 -33.685301 -5.798714 1.982974 40.919083 -5.014514 -2.295449 -4.288059 -5.606479 -1.812485 0.000000 0.000002 -0.000000 -0.000001 0.000001 -0.000000 -24.009749 2.023585 -0.783019 46.631153 8.438689 -2.761901 -19.427006 4.026346 0.072641 0.000000 -0.000001 0.000000 0.000000 0.000000 -0.000000 5.724043 1.095667 -0.395603 4.738549 -0.077031 0.013274 10.277609 25.957787 -3.363606 1.273774 2.834240 0.147158 1.273769 2.834232 0.147159 0.000001 0.000000 0.000000 1.273852 2.834241 0.147156 1.273774 2.834239 0.147161 0.000000 0.000000 -0.000001 0.000001 0.000000 0.000001 8.936021 -24.743206 -2.968080 -31.626484 14.382073 -57.607871 -91.448713 12.659286 -87.264942 -27.549390 -3.888670 -2.758383 0.699127 9.503395 -2.418121 5.975194 12.647539 1.348329 0.000001 0.000000 -0.000001 9.479718 -1.289755 -20.785557 0.709479 2.796412 -28.467081 0.000001 -0.000002 -0.000001 10.058158 -1.800606 -20.644710 1.774256 4.200471 -45.782065 0.000000 0.000001 -0.000001 1.254223 -0.073713 -17.945767 3.754108 5.463627 -68.965315 0.000001 -0.000001 -0.000000 -7.938251 1.609101 -6.495668 2.210558 4.583628 -51.475164 0.000002 0.000000 -0.000001 -0.000000 0.000000 0.000000 -0.000000 0.000000 0.000000 -0.000000 0.000000 0.000000 -0.000002 0.000000 -0.000002 -0.000001 -0.000001 -0.000002 -0.000002 0.000000 -0.000002 -0.000002 -0.000001 -0.000002 10.515028 19.480680 -2.038388 -4.644170 40.827442 49.316537 77.224298 115.480139 -92.086222 -9.525315 19.966339 13.905990 13.942492 -4.273681 -5.300328 7.113147 -20.767455 -2.619519 0.000000 -0.000002 -0.000003 0.357748 -5.832703 5.175851 0.094360 -0.933688 11.539909 0.000000 0.000000 -0.000000 3.764103 -12.080455 1.143785 5.714265 -4.535835 103.133562 -0.000000 0.000000 -0.000000 -12.155590 -12.623924 9.228351 6.566850 -4.248440 114.232353 0.000000 -0.000001 -0.000001 -17.635776 -10.496876 3.325423 4.993616 -4.645003 94.147935 0.000000 -0.000000 -0.000001 0.000001 -0.000000 0.000002 0.000000 -0.000000 0.000002 0.000000 -0.000000 0.000002 -0.000000 0.000000 0.000000 -0.000001 0.000000 -0.000000 -0.000000 0.000000 0.000000 -0.000001 -0.000000 -0.000000 0.000002 -0.000000 -0.000000 0.000002 -0.000000 -0.000000 0.000002 -0.000000 -0.000000 0.000002 -0.000000 -0.000000 0.000002 -0.000000 -0.000000 0.000002 -0.000000 -0.000000 0.000002 -0.000000 -0.000000 -0.000000 0.000000 0.000000 0.000000 0.000000 0.000000 
-7.425445 89.853989 20.729813 -3.434302 -5.062726 -0.946187 0.000000 -0.000000 -0.000000 -33.507644 -6.599090 2.082327 39.813186 -3.664251 -2.213890 -3.505178 -6.252760 -2.725533 -0.000000 0.000000 0.000000 -0.000000 -0.000001 0.000000 -23.315298 1.018564 -0.847608 46.143126 7.534168 -2.342540 -19.604653 4.194902 -0.577048 -0.000000 0.000001 0.000000 0.000000 -0.000000 -0.000000 5.709297 1.116095 -0.408832 4.738977 -0.070926 0.012768 10.249796 25.856274 -3.366810 1.267017 2.809103 0.143011 1.267005 2.809096 0.143044 0.000000 -0.000001 -0.000000 1.267084 2.809172 0.142993 1.266917 2.809004 0.143034 -0.000001 -0.000001 -0.000001 0.000000 -0.000001 0.000000 8.936047 -24.743245 -2.968070 -31.289414 14.458619 -57.880307 -91.904355 12.475431 -87.595475 -27.473748 -3.547125 -2.576798 0.699129 9.503389 -2.418121 5.975190 12.647543 1.348328 -0.000000 0.000000 -0.000001 9.479719 -1.289762 -20.785562 0.709479 2.796410 -28.467081 -0.000001 -0.000001 0.000002 10.058159 -1.800613 -20.644710 1.774258 4.200466 -45.782061 0.000000 -0.000000 -0.000000 1.254221 -0.073720 -17.945767 3.754109 5.463628 -68.965315 -0.000000 -0.000001 0.000000 -7.938246 1.609098 -6.495670 2.210560 4.583624 -51.475164 0.000001 0.000002 0.000000 0.000000 0.000001 -0.000000 0.000000 0.000001 -0.000000 0.000000 0.000001 -0.000000 0.000001 0.000001 -0.000004 0.000001 0.000002 -0.000004 0.000001 0.000001 -0.000004 0.000001 0.000001 -0.000004 10.514842 19.501179 -2.042496 -4.444142 41.110738 49.507509 76.555690 115.556036 -91.692578 -9.035353 19.920040 13.815833 13.942491 -4.273680 -5.300332 7.113146 -20.767455 -2.619519 0.000000 -0.000001 0.000001 0.357750 -5.832699 5.175849 0.094359 -0.933687 11.539905 0.000000 -0.000000 -0.000000 3.764102 -12.080452 1.143784 5.714265 -4.535835 103.133562 0.000000 0.000000 -0.000000 -12.155586 -12.623921 9.228351 6.566850 -4.248439 114.232353 0.000001 -0.000001 -0.000003 -17.635770 -10.496872 3.325427 4.993618 -4.645000 94.147935 -0.000001 -0.000004 0.000000 0.000001 0.000000 0.000002 0.000001 0.000000 0.000002 0.000001 0.000000 0.000002 -0.000000 0.000000 0.000000 -0.000000 0.000000 0.000002 -0.000000 0.000000 0.000000 -0.000000 0.000000 0.000002 -0.000000 -0.000003 0.000000 -0.000000 -0.000003 0.000000 -0.000000 -0.000003 0.000000 -0.000000 -0.000003 0.000000 -0.000000 -0.000003 0.000000 -0.000000 -0.000003 0.000000 -0.000000 -0.000003 0.000000 -0.000000 -0.000000 -0.000000 0.000000 -0.000000 -0.000000 
